<?xml version="1.0" standalone="no"?>
<!DOCTYPE svg PUBLIC "-//W3C//DTD SVG 20010904//EN"
 "http://www.w3.org/TR/2001/REC-SVG-20010904/DTD/svg10.dtd">
<svg version="1.0" xmlns="http://www.w3.org/2000/svg"
 width="512.000000pt" height="512.000000pt" viewBox="0 0 512.000000 512.000000"
 preserveAspectRatio="xMidYMid meet">

<g transform="translate(0.000000,512.000000) scale(0.100000,-0.100000)"
fill="#000000" stroke="none">
<path d="M955 5104 c-542 -70 -843 -354 -931 -879 -18 -104 -19 -198 -19
-1665 0 -1463 1 -1561 18 -1665 88 -526 400 -816 947 -880 186 -22 2994 -22
3180 0 220 26 379 78 525 173 226 147 368 385 422 707 17 104 18 202 18 1665
0 1745 4 1654 -74 1887 -106 316 -338 531 -666 616 -219 57 -217 57 -1830 56
-1208 -1 -1500 -4 -1590 -15z m2507 -2322 c3 -700 5 -810 18 -825 53 -61 70
-77 84 -77 9 0 16 -4 16 -10 0 -5 14 -10 30 -10 17 0 30 -4 30 -10 0 -6 40
-10 99 -10 56 0 103 4 106 10 3 6 26 10 51 10 24 0 44 5 44 10 0 6 28 10 63
10 l63 0 12 -145 c7 -80 11 -149 8 -154 -3 -4 -51 -14 -108 -21 -57 -7 -106
-17 -109 -22 -8 -13 -383 -11 -387 1 -2 6 -13 11 -24 11 -30 0 -98 22 -98 32
0 4 -7 8 -15 8 -14 0 -55 30 -82 60 -7 8 -22 25 -33 38 -11 12 -20 27 -20 32
0 6 -4 10 -10 10 -5 0 -10 11 -10 25 0 14 -4 25 -10 25 -5 0 -10 9 -10 19 0
11 -4 21 -10 23 -25 8 -33 165 -39 808 l-6 665 -212 3 -213 2 0 145 0 145 385
0 384 0 3 -808z m-1552 760 c0 -4 39 -14 87 -21 48 -7 92 -16 98 -20 5 -4 29
-13 53 -20 23 -6 42 -16 42 -21 0 -6 10 -10 23 -10 12 -1 38 -14 57 -30 19
-17 39 -30 46 -30 16 0 71 -55 89 -90 8 -16 20 -30 25 -30 6 0 10 -7 10 -15 0
-8 4 -15 9 -15 5 0 15 -16 21 -35 6 -19 15 -35 19 -35 5 0 11 -22 15 -50 4
-27 11 -50 16 -50 6 0 10 -69 10 -175 0 -98 -4 -175 -9 -175 -5 0 -12 -22 -16
-50 -4 -27 -10 -50 -14 -50 -4 0 -14 -18 -21 -40 -7 -22 -17 -40 -22 -40 -4 0
-8 -4 -8 -10 0 -9 -40 -74 -59 -95 -28 -32 -101 -95 -109 -95 -6 0 -17 -9 -24
-19 -7 -10 -34 -25 -58 -32 -25 -7 -47 -16 -50 -19 -8 -11 -71 -30 -96 -30
-12 0 -24 -4 -26 -10 -4 -14 -214 -30 -395 -30 l-153 0 0 -280 0 -280 -165 0
-165 0 0 955 0 955 385 0 c212 0 385 -4 385 -8z"/>
<path d="M1470 2875 l0 -385 163 0 c163 0 297 13 307 29 3 5 22 12 43 16 20 4
37 13 37 20 0 7 11 16 25 19 13 3 30 16 36 29 7 12 21 30 32 40 25 21 47 80
47 125 0 17 5 32 10 32 6 0 10 35 10 85 0 50 -4 85 -10 85 -5 0 -10 15 -10 34
0 77 -63 162 -138 187 -20 6 -40 16 -43 21 -8 12 -74 27 -121 28 -21 0 -38 5
-38 10 0 6 -65 10 -175 10 l-175 0 0 -385z"/>
</g>
</svg>
